<svg xmlns="http://www.w3.org/2000/svg" viewBox="0 0 900 600">
<title>Flag of Egypt</title>
<path fill="#CE1126" d="M0 0h900v200H0z"/>
<path fill="#FFF" d="M0 200h900v200H0z"/>
<path fill="#000" d="M0 400h900v200H0z"/>
<g transform="translate(450 300) scale(0.3)">
<path fill="#B08D26" d="M0-120c-30 0-60 15-80 50 10-10 25-15 40-15 15 0 25 10 30 25-5-15 5-30 20-30s25 15 20 30c5-15 15-25 30-25 15 0 30 5 40 15-20-35-50-50-80-50zM-80-70c-25 30-30 80-30 140 0 50 20 80 50 80h120c30 0 50-30 50-80 0-60-5-110-30-140-10 10-25 15-40 15-20 0-35-20-40-50-5 30-20 50-40 50-15 0-30-5-40-15z"/>
</g>
</svg>
